<svg width="665" height="50" viewBox="0 0 665 50" fill="none" xmlns="http://www.w3.org/2000/svg">
<path d="M0.744 0.767999H7.66L19.048 20.476H19.464L30.852 0.767999H37.82V38H30.852V19.644L31.268 13.404H30.852L21.388 30.096H17.176L7.66 13.404H7.244L7.66 19.644V38H0.744V0.767999ZM56.5619 11.688C58.5379 11.688 60.3406 12.0347 61.9699 12.728C63.6339 13.3867 65.0553 14.3227 66.2339 15.536C67.4473 16.7147 68.3833 18.136 69.0419 19.8C69.7353 21.464 70.0819 23.284 70.0819 25.26C70.0819 27.236 69.7353 29.056 69.0419 30.72C68.3833 32.384 67.4473 33.8227 66.2339 35.036C65.0553 36.2147 63.6339 37.1507 61.9699 37.844C60.3406 38.5027 58.5379 38.832 56.5619 38.832C54.5859 38.832 52.7659 38.5027 51.1019 37.844C49.4726 37.1507 48.0513 36.2147 46.8379 35.036C45.6593 33.8227 44.7233 32.384 44.0299 30.72C43.3713 29.056 43.0419 27.236 43.0419 25.26C43.0419 23.284 43.3713 21.464 44.0299 19.8C44.7233 18.136 45.6593 16.7147 46.8379 15.536C48.0513 14.3227 49.4726 13.3867 51.1019 12.728C52.7659 12.0347 54.5859 11.688 56.5619 11.688ZM56.5619 32.54C57.4286 32.54 58.2606 32.384 59.0579 32.072C59.8899 31.7253 60.6179 31.24 61.2419 30.616C61.8659 29.992 62.3513 29.2293 62.6979 28.328C63.0793 27.4267 63.2699 26.404 63.2699 25.26C63.2699 24.116 63.0793 23.0933 62.6979 22.192C62.3513 21.2907 61.8659 20.528 61.2419 19.904C60.6179 19.28 59.8899 18.812 59.0579 18.5C58.2606 18.1533 57.4286 17.98 56.5619 17.98C55.6606 17.98 54.8113 18.1533 54.0139 18.5C53.2166 18.812 52.5059 19.28 51.8819 19.904C51.2579 20.528 50.7553 21.2907 50.3739 22.192C50.0273 23.0933 49.8539 24.116 49.8539 25.26C49.8539 26.404 50.0273 27.4267 50.3739 28.328C50.7553 29.2293 51.2579 29.992 51.8819 30.616C52.5059 31.24 53.2166 31.7253 54.0139 32.072C54.8113 32.384 55.6606 32.54 56.5619 32.54ZM73.9511 12.52H80.3471V16.056H80.7631C81.0751 15.432 81.4911 14.86 82.0111 14.34C82.5311 13.82 83.1031 13.3693 83.7271 12.988C84.3857 12.6067 85.0791 12.312 85.8071 12.104C86.5697 11.896 87.3151 11.792 88.0431 11.792C88.9444 11.792 89.7071 11.8787 90.3311 12.052C90.9897 12.2253 91.5444 12.4507 91.9951 12.728L90.1751 18.916C89.7591 18.708 89.2911 18.552 88.7711 18.448C88.2857 18.3093 87.6791 18.24 86.9511 18.24C86.0151 18.24 85.1657 18.4307 84.4031 18.812C83.6404 19.1587 82.9817 19.6613 82.4271 20.32C81.9071 20.9787 81.4911 21.7587 81.1791 22.66C80.9017 23.5267 80.7631 24.48 80.7631 25.52V38H73.9511V12.52ZM109.815 35.296H109.399C108.602 36.2667 107.631 37.0987 106.487 37.792C105.378 38.4853 103.939 38.832 102.171 38.832C100.854 38.832 99.6059 38.6067 98.4272 38.156C97.2832 37.74 96.2779 37.1507 95.4112 36.388C94.5446 35.6253 93.8686 34.7067 93.3832 33.632C92.8979 32.5573 92.6552 31.3787 92.6552 30.096C92.6552 28.7787 92.9152 27.6 93.4352 26.56C93.9552 25.4853 94.6832 24.5667 95.6192 23.804C96.5552 23.0413 97.6472 22.4693 98.8952 22.088C100.178 21.672 101.565 21.464 103.055 21.464C104.719 21.464 106.089 21.6027 107.163 21.88C108.238 22.1227 109.122 22.3827 109.815 22.66V21.88C109.815 20.528 109.278 19.4187 108.203 18.552C107.129 17.6507 105.794 17.2 104.199 17.2C101.842 17.2 99.8486 18.188 98.2192 20.164L93.2792 16.784C95.9832 13.3867 99.6752 11.688 104.355 11.688C108.307 11.688 111.323 12.624 113.403 14.496C115.483 16.3333 116.523 19.072 116.523 22.712V38H109.815V35.296ZM109.815 27.652C109.018 27.2707 108.186 26.976 107.319 26.768C106.487 26.5253 105.569 26.404 104.563 26.404C102.934 26.404 101.669 26.768 100.767 27.496C99.9006 28.1893 99.4672 29.056 99.4672 30.096C99.4672 31.136 99.8832 31.968 100.715 32.592C101.582 33.216 102.57 33.528 103.679 33.528C104.581 33.528 105.413 33.372 106.175 33.06C106.938 32.7133 107.579 32.28 108.099 31.76C108.654 31.2053 109.07 30.5813 109.347 29.888C109.659 29.16 109.815 28.4147 109.815 27.652Z" fill="#4D81EE"/>
<path d="M128.995 0.767999H136.587L144.283 23.18L145.635 27.964H146.051L147.507 23.18L155.515 0.767999H163.107L149.535 38H142.151L128.995 0.767999ZM169.407 8.828C168.818 8.828 168.246 8.724 167.691 8.516C167.171 8.27333 166.703 7.96133 166.287 7.58C165.906 7.164 165.594 6.696 165.351 6.176C165.143 5.656 165.039 5.084 165.039 4.46C165.039 3.836 165.143 3.264 165.351 2.744C165.594 2.224 165.906 1.77333 166.287 1.392C166.703 0.975998 167.171 0.663998 167.691 0.455997C168.246 0.213331 168.818 0.0919983 169.407 0.0919983C170.621 0.0919983 171.661 0.525331 172.527 1.392C173.394 2.224 173.827 3.24667 173.827 4.46C173.827 5.67333 173.394 6.71333 172.527 7.58C171.661 8.412 170.621 8.828 169.407 8.828ZM166.027 38V12.52H172.839V38H166.027ZM175.376 42.992C175.654 43.1653 175.914 43.2867 176.156 43.356C176.434 43.4253 176.763 43.46 177.144 43.46C178.704 43.46 179.484 42.4373 179.484 40.392V12.52H186.296V40.6C186.296 42.264 186.071 43.668 185.62 44.812C185.17 45.9907 184.563 46.944 183.8 47.672C183.038 48.4 182.154 48.92 181.148 49.232C180.143 49.5787 179.068 49.752 177.924 49.752C177.058 49.752 176.278 49.6827 175.584 49.544C174.891 49.44 174.25 49.2667 173.66 49.024L175.376 42.992ZM182.864 8.828C182.275 8.828 181.703 8.724 181.148 8.516C180.628 8.27333 180.16 7.96133 179.744 7.58C179.363 7.164 179.051 6.696 178.808 6.176C178.6 5.656 178.496 5.084 178.496 4.46C178.496 3.836 178.6 3.264 178.808 2.744C179.051 2.224 179.363 1.77333 179.744 1.392C180.16 0.975998 180.628 0.663998 181.148 0.455997C181.703 0.213331 182.275 0.0919983 182.864 0.0919983C184.078 0.0919983 185.118 0.525331 185.984 1.392C186.851 2.224 187.284 3.24667 187.284 4.46C187.284 5.67333 186.851 6.71333 185.984 7.58C185.118 8.412 184.078 8.828 182.864 8.828ZM207.975 35.296H207.559C206.762 36.2667 205.791 37.0987 204.647 37.792C203.538 38.4853 202.099 38.832 200.331 38.832C199.014 38.832 197.766 38.6067 196.587 38.156C195.443 37.74 194.438 37.1507 193.571 36.388C192.705 35.6253 192.029 34.7067 191.543 33.632C191.058 32.5573 190.815 31.3787 190.815 30.096C190.815 28.7787 191.075 27.6 191.595 26.56C192.115 25.4853 192.843 24.5667 193.779 23.804C194.715 23.0413 195.807 22.4693 197.055 22.088C198.338 21.672 199.725 21.464 201.215 21.464C202.879 21.464 204.249 21.6027 205.323 21.88C206.398 22.1227 207.282 22.3827 207.975 22.66V21.88C207.975 20.528 207.438 19.4187 206.363 18.552C205.289 17.6507 203.954 17.2 202.359 17.2C200.002 17.2 198.009 18.188 196.379 20.164L191.439 16.784C194.143 13.3867 197.835 11.688 202.515 11.688C206.467 11.688 209.483 12.624 211.563 14.496C213.643 16.3333 214.683 19.072 214.683 22.712V38H207.975V35.296ZM207.975 27.652C207.178 27.2707 206.346 26.976 205.479 26.768C204.647 26.5253 203.729 26.404 202.723 26.404C201.094 26.404 199.829 26.768 198.927 27.496C198.061 28.1893 197.627 29.056 197.627 30.096C197.627 31.136 198.043 31.968 198.875 32.592C199.742 33.216 200.73 33.528 201.839 33.528C202.741 33.528 203.573 33.372 204.335 33.06C205.098 32.7133 205.739 32.28 206.259 31.76C206.814 31.2053 207.23 30.5813 207.507 29.888C207.819 29.16 207.975 28.4147 207.975 27.652ZM227.6 36.752L216.888 12.52H224.636L231.084 27.964H231.448L237.636 12.52H245.228L229.264 49.232H221.932L227.6 36.752ZM262.718 35.296H262.302C261.504 36.2667 260.534 37.0987 259.39 37.792C258.28 38.4853 256.842 38.832 255.074 38.832C253.756 38.832 252.508 38.6067 251.33 38.156C250.186 37.74 249.18 37.1507 248.314 36.388C247.447 35.6253 246.771 34.7067 246.286 33.632C245.8 32.5573 245.558 31.3787 245.558 30.096C245.558 28.7787 245.818 27.6 246.338 26.56C246.858 25.4853 247.586 24.5667 248.522 23.804C249.458 23.0413 250.55 22.4693 251.798 22.088C253.08 21.672 254.467 21.464 255.958 21.464C257.622 21.464 258.991 21.6027 260.066 21.88C261.14 22.1227 262.024 22.3827 262.718 22.66V21.88C262.718 20.528 262.18 19.4187 261.106 18.552C260.031 17.6507 258.696 17.2 257.102 17.2C254.744 17.2 252.751 18.188 251.122 20.164L246.182 16.784C248.886 13.3867 252.578 11.688 257.258 11.688C261.21 11.688 264.226 12.624 266.306 14.496C268.386 16.3333 269.426 19.072 269.426 22.712V38H262.718V35.296ZM262.718 27.652C261.92 27.2707 261.088 26.976 260.222 26.768C259.39 26.5253 258.471 26.404 257.466 26.404C255.836 26.404 254.571 26.768 253.67 27.496C252.803 28.1893 252.37 29.056 252.37 30.096C252.37 31.136 252.786 31.968 253.618 32.592C254.484 33.216 255.472 33.528 256.582 33.528C257.483 33.528 258.315 33.372 259.078 33.06C259.84 32.7133 260.482 32.28 261.002 31.76C261.556 31.2053 261.972 30.5813 262.25 29.888C262.562 29.16 262.718 28.4147 262.718 27.652ZM595.462 34.932H595.046C594.422 36.0067 593.452 36.9253 592.134 37.688C590.817 38.4507 589.188 38.832 587.246 38.832C585.617 38.832 584.057 38.5027 582.566 37.844C581.11 37.1507 579.81 36.2147 578.666 35.036C577.557 33.8227 576.673 32.384 576.014 30.72C575.356 29.056 575.026 27.236 575.026 25.26C575.026 23.284 575.356 21.464 576.014 19.8C576.673 18.136 577.557 16.7147 578.666 15.536C579.81 14.3227 581.11 13.3867 582.566 12.728C584.057 12.0347 585.617 11.688 587.246 11.688C589.188 11.688 590.817 12.0693 592.134 12.832C593.452 13.5947 594.422 14.5133 595.046 15.588H595.462L595.046 11.948V0.767999H601.858V38H595.462V34.932ZM588.65 32.54C589.552 32.54 590.401 32.384 591.198 32.072C592.03 31.7253 592.758 31.24 593.382 30.616C594.006 29.992 594.509 29.2293 594.89 28.328C595.272 27.4267 595.462 26.404 595.462 25.26C595.462 24.116 595.272 23.0933 594.89 22.192C594.509 21.2907 594.006 20.528 593.382 19.904C592.758 19.28 592.03 18.812 591.198 18.5C590.401 18.1533 589.552 17.98 588.65 17.98C587.749 17.98 586.882 18.1533 586.05 18.5C585.253 18.8467 584.542 19.332 583.918 19.956C583.294 20.58 582.792 21.3427 582.41 22.244C582.029 23.1453 581.838 24.1507 581.838 25.26C581.838 26.3693 582.029 27.3747 582.41 28.276C582.792 29.1773 583.294 29.94 583.918 30.564C584.542 31.188 585.253 31.6733 586.05 32.02C586.882 32.3667 587.749 32.54 588.65 32.54ZM626.388 34.932H625.972C625.348 36.0067 624.377 36.9253 623.06 37.688C621.743 38.4507 620.113 38.832 618.172 38.832C616.543 38.832 614.983 38.5027 613.492 37.844C612.036 37.1507 610.736 36.2147 609.592 35.036C608.483 33.8227 607.599 32.384 606.94 30.72C606.281 29.056 605.952 27.236 605.952 25.26C605.952 23.284 606.281 21.464 606.94 19.8C607.599 18.136 608.483 16.7147 609.592 15.536C610.736 14.3227 612.036 13.3867 613.492 12.728C614.983 12.0347 616.543 11.688 618.172 11.688C620.113 11.688 621.743 12.0693 623.06 12.832C624.377 13.5947 625.348 14.5133 625.972 15.588H626.388L625.972 11.948V0.767999H632.784V38H626.388V34.932ZM619.576 32.54C620.477 32.54 621.327 32.384 622.124 32.072C622.956 31.7253 623.684 31.24 624.308 30.616C624.932 29.992 625.435 29.2293 625.816 28.328C626.197 27.4267 626.388 26.404 626.388 25.26C626.388 24.116 626.197 23.0933 625.816 22.192C625.435 21.2907 624.932 20.528 624.308 19.904C623.684 19.28 622.956 18.812 622.124 18.5C621.327 18.1533 620.477 17.98 619.576 17.98C618.675 17.98 617.808 18.1533 616.976 18.5C616.179 18.8467 615.468 19.332 614.844 19.956C614.22 20.58 613.717 21.3427 613.336 22.244C612.955 23.1453 612.764 24.1507 612.764 25.26C612.764 26.3693 612.955 27.3747 613.336 28.276C613.717 29.1773 614.22 29.94 614.844 30.564C615.468 31.188 616.179 31.6733 616.976 32.02C617.808 32.3667 618.675 32.54 619.576 32.54ZM646.596 36.752L635.884 12.52H643.632L650.08 27.964H650.444L656.632 12.52H664.224L648.26 49.232H640.928L646.596 36.752Z" fill="#E1183A"/>
<path d="M287.099 0.767999H301.659C303.254 0.767999 304.745 1.028 306.131 1.548C307.518 2.03333 308.714 2.72667 309.719 3.628C310.759 4.49467 311.574 5.51733 312.163 6.696C312.753 7.87467 313.047 9.14 313.047 10.492C313.047 12.468 312.562 14.132 311.591 15.484C310.655 16.8013 309.477 17.8067 308.055 18.5V18.916C309.962 19.6093 311.487 20.7013 312.631 22.192C313.81 23.648 314.399 25.468 314.399 27.652C314.399 29.2467 314.07 30.6853 313.411 31.968C312.787 33.216 311.921 34.2907 310.811 35.192C309.702 36.0933 308.402 36.7867 306.911 37.272C305.455 37.7573 303.878 38 302.179 38H287.099V0.767999ZM301.139 15.952C302.769 15.952 304.017 15.5187 304.883 14.652C305.785 13.7507 306.235 12.6933 306.235 11.48C306.235 10.2667 305.802 9.22667 304.935 8.36C304.069 7.49333 302.873 7.06 301.347 7.06H294.119V15.952H301.139ZM301.919 31.552C303.687 31.552 305.039 31.1187 305.975 30.252C306.911 29.3507 307.379 28.2067 307.379 26.82C307.379 25.4333 306.894 24.2893 305.923 23.388C304.987 22.452 303.583 21.984 301.711 21.984H294.119V31.552H301.919ZM318.971 0.767999H325.783V11.22L325.367 15.848H325.783C326.511 14.6347 327.551 13.6467 328.903 12.884C330.289 12.0867 331.832 11.688 333.531 11.688C336.824 11.688 339.251 12.6587 340.811 14.6C342.405 16.5413 343.203 19.1933 343.203 22.556V38H336.391V23.388C336.391 21.62 335.975 20.2853 335.143 19.384C334.311 18.448 333.149 17.98 331.659 17.98C330.723 17.98 329.891 18.188 329.163 18.604C328.435 18.9853 327.811 19.5227 327.291 20.216C326.805 20.9093 326.424 21.724 326.147 22.66C325.904 23.5613 325.783 24.532 325.783 25.572V38H318.971V0.767999ZM364.28 35.296H363.864C363.067 36.2667 362.096 37.0987 360.952 37.792C359.843 38.4853 358.404 38.832 356.636 38.832C355.319 38.832 354.071 38.6067 352.892 38.156C351.748 37.74 350.743 37.1507 349.876 36.388C349.009 35.6253 348.333 34.7067 347.848 33.632C347.363 32.5573 347.12 31.3787 347.12 30.096C347.12 28.7787 347.38 27.6 347.9 26.56C348.42 25.4853 349.148 24.5667 350.084 23.804C351.02 23.0413 352.112 22.4693 353.36 22.088C354.643 21.672 356.029 21.464 357.52 21.464C359.184 21.464 360.553 21.6027 361.628 21.88C362.703 22.1227 363.587 22.3827 364.28 22.66V21.88C364.28 20.528 363.743 19.4187 362.668 18.552C361.593 17.6507 360.259 17.2 358.664 17.2C356.307 17.2 354.313 18.188 352.684 20.164L347.744 16.784C350.448 13.3867 354.14 11.688 358.82 11.688C362.772 11.688 365.788 12.624 367.868 14.496C369.948 16.3333 370.988 19.072 370.988 22.712V38H364.28V35.296ZM364.28 27.652C363.483 27.2707 362.651 26.976 361.784 26.768C360.952 26.5253 360.033 26.404 359.028 26.404C357.399 26.404 356.133 26.768 355.232 27.496C354.365 28.1893 353.932 29.056 353.932 30.096C353.932 31.136 354.348 31.968 355.18 32.592C356.047 33.216 357.035 33.528 358.144 33.528C359.045 33.528 359.877 33.372 360.64 33.06C361.403 32.7133 362.044 32.28 362.564 31.76C363.119 31.2053 363.535 30.5813 363.812 29.888C364.124 29.16 364.28 28.4147 364.28 27.652Z" fill="#F5C228"/>
<path d="M386.238 38.832C384.574 38.832 383.084 38.624 381.766 38.208C380.484 37.792 379.357 37.2547 378.386 36.596C377.45 35.9027 376.653 35.1227 375.994 34.256C375.336 33.3547 374.833 32.4533 374.486 31.552L380.57 28.952C381.16 30.2693 381.94 31.2573 382.91 31.916C383.916 32.54 385.025 32.852 386.238 32.852C387.486 32.852 388.474 32.6267 389.202 32.176C389.93 31.7253 390.294 31.188 390.294 30.564C390.294 29.8707 389.982 29.316 389.358 28.9C388.769 28.4493 387.729 28.0507 386.238 27.704L382.65 26.924C381.853 26.7507 381.021 26.4733 380.154 26.092C379.322 25.7107 378.56 25.2253 377.866 24.636C377.173 24.0467 376.601 23.336 376.15 22.504C375.7 21.672 375.474 20.7013 375.474 19.592C375.474 18.344 375.734 17.2347 376.254 16.264C376.809 15.2933 377.554 14.4787 378.49 13.82C379.426 13.1267 380.518 12.6067 381.766 12.26C383.049 11.8787 384.418 11.688 385.874 11.688C388.301 11.688 390.468 12.1733 392.374 13.144C394.281 14.08 395.685 15.588 396.586 17.668L390.71 20.06C390.225 19.0547 389.514 18.3267 388.578 17.876C387.642 17.4253 386.706 17.2 385.77 17.2C384.8 17.2 383.95 17.408 383.222 17.824C382.494 18.2053 382.13 18.708 382.13 19.332C382.13 19.9213 382.425 20.3893 383.014 20.736C383.638 21.0827 384.47 21.3947 385.51 21.672L389.41 22.608C392.01 23.232 393.934 24.2373 395.182 25.624C396.465 26.976 397.106 28.588 397.106 30.46C397.106 31.5693 396.846 32.6267 396.326 33.632C395.806 34.6373 395.061 35.5387 394.09 36.336C393.154 37.0987 392.01 37.7053 390.658 38.156C389.341 38.6067 387.868 38.832 386.238 38.832ZM401.287 0.767999H408.099V21.048H408.411L416.939 12.52H425.363V12.936L415.899 22.14L426.143 37.584V38H418.083L411.115 26.82L408.099 29.784V38H401.287V0.767999ZM444.057 35.296H443.641C442.844 36.2667 441.873 37.0987 440.729 37.792C439.62 38.4853 438.181 38.832 436.413 38.832C435.096 38.832 433.848 38.6067 432.669 38.156C431.525 37.74 430.52 37.1507 429.653 36.388C428.787 35.6253 428.111 34.7067 427.625 33.632C427.14 32.5573 426.897 31.3787 426.897 30.096C426.897 28.7787 427.157 27.6 427.677 26.56C428.197 25.4853 428.925 24.5667 429.861 23.804C430.797 23.0413 431.889 22.4693 433.137 22.088C434.42 21.672 435.807 21.464 437.297 21.464C438.961 21.464 440.331 21.6027 441.405 21.88C442.48 22.1227 443.364 22.3827 444.057 22.66V21.88C444.057 20.528 443.52 19.4187 442.445 18.552C441.371 17.6507 440.036 17.2 438.441 17.2C436.084 17.2 434.091 18.188 432.461 20.164L427.521 16.784C430.225 13.3867 433.917 11.688 438.597 11.688C442.549 11.688 445.565 12.624 447.645 14.496C449.725 16.3333 450.765 19.072 450.765 22.712V38H444.057V35.296ZM444.057 27.652C443.26 27.2707 442.428 26.976 441.561 26.768C440.729 26.5253 439.811 26.404 438.805 26.404C437.176 26.404 435.911 26.768 435.009 27.496C434.143 28.1893 433.709 29.056 433.709 30.096C433.709 31.136 434.125 31.968 434.957 32.592C435.824 33.216 436.812 33.528 437.921 33.528C438.823 33.528 439.655 33.372 440.417 33.06C441.18 32.7133 441.821 32.28 442.341 31.76C442.896 31.2053 443.312 30.5813 443.589 29.888C443.901 29.16 444.057 28.4147 444.057 27.652ZM456.182 12.52H462.578V16.056H462.994C463.306 15.432 463.722 14.86 464.242 14.34C464.762 13.82 465.334 13.3693 465.958 12.988C466.616 12.6067 467.31 12.312 468.038 12.104C468.8 11.896 469.546 11.792 470.274 11.792C471.175 11.792 471.938 11.8787 472.562 12.052C473.22 12.2253 473.775 12.4507 474.226 12.728L472.406 18.916C471.99 18.708 471.522 18.552 471.002 18.448C470.516 18.3093 469.91 18.24 469.182 18.24C468.246 18.24 467.396 18.4307 466.634 18.812C465.871 19.1587 465.212 19.6613 464.658 20.32C464.138 20.9787 463.722 21.7587 463.41 22.66C463.132 23.5267 462.994 24.48 462.994 25.52V38H456.182V12.52ZM492.046 35.296H491.63C490.832 36.2667 489.862 37.0987 488.718 37.792C487.608 38.4853 486.17 38.832 484.402 38.832C483.084 38.832 481.836 38.6067 480.658 38.156C479.514 37.74 478.508 37.1507 477.642 36.388C476.775 35.6253 476.099 34.7067 475.614 33.632C475.128 32.5573 474.886 31.3787 474.886 30.096C474.886 28.7787 475.146 27.6 475.666 26.56C476.186 25.4853 476.914 24.5667 477.85 23.804C478.786 23.0413 479.878 22.4693 481.126 22.088C482.408 21.672 483.795 21.464 485.286 21.464C486.95 21.464 488.319 21.6027 489.394 21.88C490.468 22.1227 491.352 22.3827 492.046 22.66V21.88C492.046 20.528 491.508 19.4187 490.434 18.552C489.359 17.6507 488.024 17.2 486.43 17.2C484.072 17.2 482.079 18.188 480.45 20.164L475.51 16.784C478.214 13.3867 481.906 11.688 486.586 11.688C490.538 11.688 493.554 12.624 495.634 14.496C497.714 16.3333 498.754 19.072 498.754 22.712V38H492.046V35.296ZM492.046 27.652C491.248 27.2707 490.416 26.976 489.55 26.768C488.718 26.5253 487.799 26.404 486.794 26.404C485.164 26.404 483.899 26.768 482.998 27.496C482.131 28.1893 481.698 29.056 481.698 30.096C481.698 31.136 482.114 31.968 482.946 32.592C483.812 33.216 484.8 33.528 485.91 33.528C486.811 33.528 487.643 33.372 488.406 33.06C489.168 32.7133 489.81 32.28 490.33 31.76C490.884 31.2053 491.3 30.5813 491.578 29.888C491.89 29.16 492.046 28.4147 492.046 27.652Z" fill="#4E81EE"/>
<path d="M516.428 0.767999H530C531.872 0.767999 533.57 1.06266 535.096 1.652C536.621 2.24133 537.921 3.056 538.996 4.096C540.105 5.136 540.954 6.384 541.544 7.84C542.133 9.26133 542.428 10.8213 542.428 12.52C542.428 13.768 542.22 14.9467 541.804 16.056C541.388 17.1307 540.816 18.1187 540.088 19.02C539.36 19.8867 538.51 20.6667 537.54 21.36C536.569 22.0187 535.546 22.5387 534.472 22.92L534.42 23.284L544.404 37.584V38H536.344L526.724 24.012H523.448V38H516.428V0.767999ZM529.948 17.564C531.542 17.564 532.842 17.0787 533.848 16.108C534.888 15.1373 535.408 13.9067 535.408 12.416C535.408 11.7573 535.286 11.116 535.044 10.492C534.836 9.868 534.506 9.31333 534.056 8.828C533.605 8.34266 533.033 7.96133 532.34 7.684C531.681 7.372 530.918 7.216 530.052 7.216H523.448V17.564H529.948ZM571.462 31.864C570.283 33.944 568.689 35.6253 566.678 36.908C564.702 38.1907 562.275 38.832 559.398 38.832C557.457 38.832 555.654 38.5027 553.99 37.844C552.361 37.1507 550.939 36.1973 549.726 34.984C548.513 33.7707 547.559 32.3493 546.866 30.72C546.207 29.056 545.878 27.236 545.878 25.26C545.878 23.4227 546.207 21.6893 546.866 20.06C547.525 18.396 548.443 16.9573 549.622 15.744C550.801 14.496 552.187 13.508 553.782 12.78C555.411 12.052 557.197 11.688 559.138 11.688C561.183 11.688 563.003 12.0347 564.598 12.728C566.193 13.3867 567.527 14.3227 568.602 15.536C569.677 16.7147 570.491 18.1187 571.046 19.748C571.601 21.3773 571.878 23.1453 571.878 25.052C571.878 25.2947 571.878 25.5027 571.878 25.676C571.843 25.884 571.826 26.0747 571.826 26.248C571.791 26.4213 571.774 26.612 571.774 26.82H552.586C552.725 27.86 553.002 28.7613 553.418 29.524C553.869 30.252 554.406 30.876 555.03 31.396C555.689 31.8813 556.399 32.2453 557.162 32.488C557.925 32.696 558.705 32.8 559.502 32.8C561.062 32.8 562.345 32.4533 563.35 31.76C564.39 31.032 565.205 30.1307 565.794 29.056L571.462 31.864ZM565.274 21.984C565.239 21.5333 565.083 21.0307 564.806 20.476C564.563 19.9213 564.182 19.4013 563.662 18.916C563.177 18.4307 562.553 18.032 561.79 17.72C561.062 17.408 560.178 17.252 559.138 17.252C557.682 17.252 556.399 17.668 555.29 18.5C554.181 19.332 553.401 20.4933 552.95 21.984H565.274Z" fill="#24BF5A"/>
</svg>
